<?xml version="1.0" standalone="no"?>
<!DOCTYPE svg PUBLIC "-//W3C//DTD SVG 20010904//EN"
 "http://www.w3.org/TR/2001/REC-SVG-20010904/DTD/svg10.dtd">
<svg version="1.0" xmlns="http://www.w3.org/2000/svg"
 width="1280.000000pt" height="640.000000pt" viewBox="0 0 1280.000000 640.000000"
 preserveAspectRatio="xMidYMid meet">
<metadata>
Created by potrace 1.15, written by Peter Selinger 2001-2017
</metadata>
<g transform="translate(0.000000,640.000000) scale(0.100000,-0.100000)"
fill="#000000" stroke="none">
<path d="M10120 5779 c-186 -17 -365 -58 -617 -140 -229 -76 -350 -162 -492
-354 -78 -105 -96 -133 -226 -360 -180 -313 -311 -493 -485 -665 -97 -95 -186
-165 -420 -327 -295 -204 -454 -340 -466 -397 -6 -28 -50 -60 -505 -356 -274
-179 -505 -326 -513 -328 -8 -2 -79 17 -158 43 -109 35 -431 106 -1368 301
-674 140 -1360 284 -1525 319 -165 35 -534 113 -820 174 -721 153 -1117 239
-1442 315 -153 36 -318 70 -368 77 -198 26 -363 -20 -411 -113 -26 -51 -5 -72
220 -208 136 -81 204 -111 471 -205 528 -186 1162 -385 1226 -385 14 0 81 -15
150 -34 115 -32 662 -181 1409 -383 365 -98 480 -131 462 -132 -58 -4 -1065
-84 -1197 -96 -678 -63 -2570 -314 -2820 -376 -147 -36 -235 -96 -222 -152 20
-77 169 -147 414 -193 158 -29 543 -29 1158 0 297 14 695 33 885 41 553 24
2084 86 2610 105 1277 46 1343 50 1360 65 15 14 36 10 216 -39 109 -30 408
-111 663 -181 417 -113 469 -129 512 -161 64 -47 145 -77 314 -119 305 -75
341 -96 611 -356 174 -169 228 -197 469 -248 83 -18 233 -52 335 -76 221 -53
624 -126 900 -164 274 -38 374 -44 715 -45 379 0 417 4 825 85 213 42 304 73
416 141 276 167 430 452 385 712 -50 288 -264 450 -713 540 -326 66 -934 134
-1613 180 -1388 95 -1496 99 -1927 72 -136 -9 -312 -16 -390 -16 -135 1 -150
3 -258 36 -114 35 -642 201 -669 210 -9 3 13 21 55 45 146 87 363 208 452 254
93 47 94 48 135 34 83 -28 129 -18 285 60 78 39 218 114 311 165 92 52 196
108 232 126 35 18 98 53 139 78 177 107 591 283 810 344 136 38 168 43 255 43
99 0 102 -1 256 -62 225 -90 291 -106 408 -101 78 3 107 9 156 31 164 76 264
203 348 443 20 54 54 144 76 199 97 234 135 397 135 570 0 145 -21 230 -90
368 -104 207 -259 361 -472 470 -199 102 -395 144 -592 126z m33 -340 c203
-26 395 -124 538 -276 146 -156 195 -321 154 -517 -41 -194 -201 -379 -422
-490 -139 -69 -214 -88 -348 -89 -171 -1 -241 23 -374 129 -172 137 -266 332
-278 574 -7 149 14 276 62 379 60 126 188 235 329 281 90 29 162 31 339 9z
m-38 -3624 c127 -8 309 -19 405 -25 96 -5 216 -14 265 -19 50 -6 248 -22 440
-36 646 -48 850 -100 943 -241 38 -56 46 -92 40 -182 -5 -94 -42 -168 -120
-245 -78 -77 -141 -111 -263 -142 -291 -74 -684 -78 -1290 -14 -476 50 -756
113 -986 223 -268 126 -419 341 -369 521 12 42 15 45 84 74 82 34 226 65 396
85 151 18 184 18 455 1z"/>
</g>
</svg>
